<?xml version="1.0" encoding="UTF-8"?>
<!DOCTYPE svg PUBLIC "-//W3C//DTD SVG 1.1//EN" "http://www.w3.org/Graphics/SVG/1.1/DTD/svg11.dtd">
<svg version="1.2" width="40.22mm" height="7.94mm" viewBox="0 0 4022 794" preserveAspectRatio="xMidYMid" fill-rule="evenodd" stroke-width="28.222" stroke-linejoin="round" xmlns="http://www.w3.org/2000/svg" xmlns:ooo="http://xml.openoffice.org/svg/export" xmlns:xlink="http://www.w3.org/1999/xlink" xmlns:presentation="http://sun.com/xmlns/staroffice/presentation" xmlns:smil="http://www.w3.org/2001/SMIL20/" xmlns:anim="urn:oasis:names:tc:opendocument:xmlns:animation:1.0" xml:space="preserve">
 <defs class="ClipPathGroup">
  <clipPath id="presentation_clip_path" clipPathUnits="userSpaceOnUse">
   <rect x="0" y="0" width="4022" height="794"/>
  </clipPath>
  <clipPath id="presentation_clip_path_shrink" clipPathUnits="userSpaceOnUse">
   <rect x="4" y="0" width="4014" height="793"/>
  </clipPath>
 </defs>
 <defs class="TextShapeIndex">
  <g ooo:slide="id1" ooo:id-list="id3"/>
 </defs>
 <defs class="EmbeddedBulletChars">
  <g id="bullet-char-template-57356" transform="scale(0.00048828125,-0.00048828125)">
   <path d="M 580,1141 L 1163,571 580,0 -4,571 580,1141 Z"/>
  </g>
  <g id="bullet-char-template-57354" transform="scale(0.00048828125,-0.00048828125)">
   <path d="M 8,1128 L 1137,1128 1137,0 8,0 8,1128 Z"/>
  </g>
  <g id="bullet-char-template-10146" transform="scale(0.00048828125,-0.00048828125)">
   <path d="M 174,0 L 602,739 174,1481 1456,739 174,0 Z M 1358,739 L 309,1346 659,739 1358,739 Z"/>
  </g>
  <g id="bullet-char-template-10132" transform="scale(0.00048828125,-0.00048828125)">
   <path d="M 2015,739 L 1276,0 717,0 1260,543 174,543 174,936 1260,936 717,1481 1274,1481 2015,739 Z"/>
  </g>
  <g id="bullet-char-template-10007" transform="scale(0.00048828125,-0.00048828125)">
   <path d="M 0,-2 C -7,14 -16,27 -25,37 L 356,567 C 262,823 215,952 215,954 215,979 228,992 255,992 264,992 276,990 289,987 310,991 331,999 354,1012 L 381,999 492,748 772,1049 836,1024 860,1049 C 881,1039 901,1025 922,1006 886,937 835,863 770,784 769,783 710,716 594,584 L 774,223 C 774,196 753,168 711,139 L 727,119 C 717,90 699,76 672,76 641,76 570,178 457,381 L 164,-76 C 142,-110 111,-127 72,-127 30,-127 9,-110 8,-76 1,-67 -2,-52 -2,-32 -2,-23 -1,-13 0,-2 Z"/>
  </g>
  <g id="bullet-char-template-10004" transform="scale(0.00048828125,-0.00048828125)">
   <path d="M 285,-33 C 182,-33 111,30 74,156 52,228 41,333 41,471 41,549 55,616 82,672 116,743 169,778 240,778 293,778 328,747 346,684 L 369,508 C 377,444 397,411 428,410 L 1163,1116 C 1174,1127 1196,1133 1229,1133 1271,1133 1292,1118 1292,1087 L 1292,965 C 1292,929 1282,901 1262,881 L 442,47 C 390,-6 338,-33 285,-33 Z"/>
  </g>
  <g id="bullet-char-template-9679" transform="scale(0.00048828125,-0.00048828125)">
   <path d="M 813,0 C 632,0 489,54 383,161 276,268 223,411 223,592 223,773 276,916 383,1023 489,1130 632,1184 813,1184 992,1184 1136,1130 1245,1023 1353,916 1407,772 1407,592 1407,412 1353,268 1245,161 1136,54 992,0 813,0 Z"/>
  </g>
  <g id="bullet-char-template-8226" transform="scale(0.00048828125,-0.00048828125)">
   <path d="M 346,457 C 273,457 209,483 155,535 101,586 74,649 74,723 74,796 101,859 155,911 209,963 273,989 346,989 419,989 480,963 531,910 582,859 608,796 608,723 608,648 583,586 532,535 482,483 420,457 346,457 Z"/>
  </g>
  <g id="bullet-char-template-8211" transform="scale(0.00048828125,-0.00048828125)">
   <path d="M -4,459 L 1135,459 1135,606 -4,606 -4,459 Z"/>
  </g>
  <g id="bullet-char-template-61548" transform="scale(0.00048828125,-0.00048828125)">
   <path d="M 173,740 C 173,903 231,1043 346,1159 462,1274 601,1332 765,1332 928,1332 1067,1274 1183,1159 1299,1043 1357,903 1357,740 1357,577 1299,437 1183,322 1067,206 928,148 765,148 601,148 462,206 346,322 231,437 173,577 173,740 Z"/>
  </g>
 </defs>
 <defs class="TextEmbeddedBitmaps"/>
 <g>
  <g id="id2" class="Master_Slide">
   <g id="bg-id2" class="Background"/>
   <g id="bo-id2" class="BackgroundObjects"/>
  </g>
 </g>
 <g class="SlideGroup">
  <g>
   <g id="container-id1">
    <g id="id1" class="Slide" clip-path="url(#presentation_clip_path)">
     <g class="Page">
      <g class="Graphic">
       <g id="id3">
        <rect class="BoundingBox" stroke="none" fill="none" x="0" y="0" width="4022" height="794"/>
        <path fill="rgb(255,5,88)" stroke="none" d="M 1956,400 L 1860,400 1860,175 1735,175 1735,746 1860,746 1860,519 1956,519 1956,746 2080,746 2080,175 1956,175 1956,400 1956,400 Z"/>
        <path fill="rgb(255,5,88)" stroke="none" d="M 1014,294 L 1115,294 1115,746 1239,746 1239,294 1334,294 1334,175 1014,175 1014,294 1014,294 Z"/>
        <path fill="rgb(255,5,88)" stroke="none" d="M 765,175 L 664,746 785,746 799,654 913,654 927,746 1049,746 947,175 765,175 765,175 Z M 814,550 L 849,313 864,313 898,550 814,550 814,550 Z"/>
        <path fill="rgb(255,5,88)" stroke="none" d="M 550,13 L 513,559 503,560 415,173 305,173 239,574 225,574 166,173 13,173 152,770 307,760 357,389 372,389 440,751 588,741 706,13 550,13 550,13 Z"/>
        <path fill="rgb(255,5,88)" stroke="none" d="M 1526,170 C 1414,170 1360,231 1360,325 L 1360,596 C 1360,691 1414,752 1526,752 1637,752 1691,691 1691,596 L 1691,498 1567,498 1567,608 C 1567,638 1555,648 1526,648 1496,648 1484,638 1484,608 L 1484,314 C 1484,284 1496,273 1526,273 1555,273 1567,284 1567,314 L 1567,378 1691,378 1691,325 C 1691,231 1637,170 1526,170 L 1526,170 Z"/>
        <path fill="rgb(255,5,88)" stroke="none" d="M 2210,175 L 2110,746 2231,746 2244,654 2359,654 2372,746 2494,746 2393,175 2210,175 2210,175 Z M 2259,550 L 2294,313 2309,313 2344,550 2259,550 2259,550 Z"/>
        <path fill="rgb(41,42,50)" stroke="none" d="M 3338,175 L 3213,175 3213,746 3338,746 C 3409,746 3456,718 3478,668 3492,638 3496,610 3496,460 3496,311 3492,284 3478,254 3456,203 3409,175 3338,175 L 3338,175 Z M 3409,635 C 3397,663 3373,678 3331,678 L 3287,678 3287,243 3331,243 C 3373,243 3397,258 3409,286 3418,306 3420,323 3420,461 3420,598 3418,616 3409,635 L 3409,635 Z"/>
        <path fill="rgb(41,42,50)" stroke="none" d="M 3904,175 L 3791,175 3686,746 3760,746 3778,631 3915,631 3935,746 4008,746 3904,175 3904,175 Z M 3790,566 L 3846,235 3848,235 3904,566 3790,566 3790,566 Z"/>
        <path fill="rgb(41,42,50)" stroke="none" d="M 3632,175 L 3558,175 3558,746 3632,746 3632,175 3632,175 Z"/>
        <path fill="rgb(41,42,50)" stroke="none" d="M 2763,175 L 2629,175 2629,746 2702,746 2702,480 2763,480 C 2820,480 2857,464 2873,428 2881,407 2883,391 2883,328 2883,264 2881,247 2873,228 2857,192 2820,175 2763,175 L 2763,175 Z M 2803,386 C 2795,407 2776,412 2745,412 L 2702,412 2702,239 2745,239 C 2776,239 2795,245 2803,264 2808,275 2809,280 2809,325 2809,369 2808,377 2803,386 L 2803,386 Z"/>
        <path fill="rgb(41,42,50)" stroke="none" d="M 2937,746 L 3144,746 3144,678 3011,678 3011,477 3141,477 3141,409 3011,409 3011,243 3144,243 3144,175 2937,175 2937,746 2937,746 Z"/>
       </g>
      </g>
     </g>
    </g>
   </g>
  </g>
 </g>
</svg>